<svg xmlns="http://www.w3.org/2000/svg" width="263.711" height="40.482" viewBox="0 0 263.711 40.482">
  <g id="Group_5" data-name="Group 5" transform="translate(-63.584 98.856) rotate(-90)">
    <g id="Group_2" data-name="Group 2" transform="translate(59.567 63.584)">
      <g id="Group_1" data-name="Group 1" transform="translate(0 0)">
        <path id="Path_1" data-name="Path 1" d="M112.348,225.981v4.772h-1.764s.2.151.248.189a4.92,4.92,0,0,1,1.835,4.487,7.61,7.61,0,0,1-.236,1.36,4.613,4.613,0,0,1-2.383,2.963l-.364.194c.132.082.233.147.335.209a6.137,6.137,0,0,1,1.522,1.273,5.061,5.061,0,0,1,1.13,3.812,6.444,6.444,0,0,1-.34,1.716,4.789,4.789,0,0,1-2.928,2.939,7.407,7.407,0,0,1-2.707.493c-3.434,0-10.616,0-10.616,0v-4.795s5.718-.011,8.387-.009a5.529,5.529,0,0,0,1.7-.211,3.485,3.485,0,0,0,.441-.168,1.819,1.819,0,0,0,.914-2.495,2.526,2.526,0,0,0-.74-.95,5.149,5.149,0,0,0-2.458-1.044,9.7,9.7,0,0,0-1.511-.125c-2.117-.013-6.733-.006-6.733-.006v-4.806s5.694,0,8.351,0a5.736,5.736,0,0,0,1.669-.2c.129-.039.257-.083.382-.134a1.86,1.86,0,0,0,.922-2.791,2.854,2.854,0,0,0-.911-.936,5.71,5.71,0,0,0-2.423-.877,8.929,8.929,0,0,0-1.177-.089c-2.139-.007-6.809,0-6.809,0v-4.772Z" transform="translate(-87.634 -184.457)" fill="#006352" fill-rule="evenodd"/>
        <path id="Path_2" data-name="Path 2" d="M81.717,353.107a8.022,8.022,0,0,0,4.462-2.558,7.7,7.7,0,0,0,1.916-5.4,4.877,4.877,0,0,0-1.592-3.67c-.05-.046-.067-.055-.23-.209h1.468v-4.8h-24.7v4.805h9.942c-.1.076-.262.228-.342.3a4.771,4.771,0,0,0-1.371,2.4,6.8,6.8,0,0,0-.068,2.483,7.458,7.458,0,0,0,3.908,5.75A9.174,9.174,0,0,0,81.717,353.107Zm-5.765-8.371a3.658,3.658,0,1,1,3.657,3.658A3.658,3.658,0,0,1,75.951,344.736Z" transform="translate(-63.041 -266.693)" fill="#006352" fill-rule="evenodd"/>
        <path id="Path_3" data-name="Path 3" d="M111.648,156.958a8.482,8.482,0,1,0-8.6,8.432A8.455,8.455,0,0,0,111.648,156.958ZM99.5,156.9a3.658,3.658,0,1,1,3.657,3.658A3.657,3.657,0,0,1,99.5,156.9Z" transform="translate(-86.592 -126.725)" fill="#006352" fill-rule="evenodd"/>
        <path id="Path_4" data-name="Path 4" d="M111.283,421.759H109.89c.109-.1.188-.177.261-.249a4.719,4.719,0,0,0,1.366-2.51,7.062,7.062,0,0,0,0-2.618,7.485,7.485,0,0,0-4.312-5.723,9.282,9.282,0,0,0-6.81-.514,7.735,7.735,0,0,0-4.541,3.356,7.814,7.814,0,0,0-1.18,4.67,4.81,4.81,0,0,0,1.546,3.414c.048.045.1.1.168.174H95.028v4.879h16.255ZM99.49,418.376a3.658,3.658,0,1,1,3.657,3.658A3.657,3.657,0,0,1,99.49,418.376Z" transform="translate(-86.58 -321.225)" fill="#006352" fill-rule="evenodd"/>
        <path id="Path_5" data-name="Path 5" d="M102.125,82.9c-.068-.129-.117-.224-.167-.317-.186-.347-.385-.688-.556-1.042a12.143,12.143,0,0,1-1.178-6.627,6.3,6.3,0,0,1,2.2-4.212,6.676,6.676,0,0,1,5.854-1.556A6.57,6.57,0,0,1,113.66,75a12,12,0,0,1-1.862,7.562c-.061.1-.117.2-.2.333h5.8a.956.956,0,0,0,.176-.216,8.386,8.386,0,0,0,.822-1.846,15.35,15.35,0,0,0,.635-3.375,13.663,13.663,0,0,0-.431-5.082,12.186,12.186,0,0,0-14.29-8.5,12.316,12.316,0,0,0-9.547,11.649,17.3,17.3,0,0,0,.4,4.26,9.373,9.373,0,0,0,1.091,2.892.821.821,0,0,0,.187.221Z" transform="translate(-86.646 -63.584)" fill="#006352" fill-rule="evenodd"/>
        <path id="Path_6" data-name="Path 6" d="M112.345,499.234a4.524,4.524,0,0,0-1.786-3.523c-.046-.035-.173-.137-.212-.178h2v-4.781H96.082v4.8s4.947,0,7.233.007a6.548,6.548,0,0,1,1.864.272,3.319,3.319,0,0,1,2.53,3.171c.031.516.038,1.552.038,1.552v.273h4.6S112.372,499.749,112.345,499.234Z" transform="translate(-87.634 -381.528)" fill="#006352" fill-rule="evenodd"/>
        <path id="Path_7" data-name="Path 7" d="M100.329,551.435c-.052-.135-.108-.266-.154-.4-.228-.659-.49-1.308-.671-1.98a9.7,9.7,0,0,1-.314-3.91,3.759,3.759,0,0,1,1.227-2.345,3.383,3.383,0,0,1,1.548-.793v10.631h3.164c.034,0,.067,0,.1,0a6.224,6.224,0,0,0,2.269-.57,6.348,6.348,0,0,0,3.682-3.943,9.328,9.328,0,0,0,.382-4.595,7.61,7.61,0,0,0-3.484-5.426,8.807,8.807,0,0,0-6.538-1.25,8.215,8.215,0,0,0-6.683,6.915,13.357,13.357,0,0,0-.12,2.862,10.671,10.671,0,0,0,.6,3.2,9.882,9.882,0,0,0,.729,1.6Zm5.98-8.8a3.018,3.018,0,0,1,.961,2.458,3.45,3.45,0,0,1-.248,1.249,2.442,2.442,0,0,1-1.861,1.5,1.362,1.362,0,0,1-.283.038v-6A3.508,3.508,0,0,1,106.309,542.63Z" transform="translate(-86.615 -415.721)" fill="#006352" fill-rule="evenodd"/>
        <path id="Path_8" data-name="Path 8" d="M95.755,682.774H102c.252,0,.5-.007.757-.015s.475-.038.712-.067c.272-.033.541-.079.809-.134a10.316,10.316,0,0,0,2.234-.727,10.682,10.682,0,0,0,5.875-6.9,9.957,9.957,0,0,0,.267-1.318c.039-.292.072-.584.083-.879.006-.161.019-.322.021-.483a10.95,10.95,0,0,0-.063-1.218,10.3,10.3,0,0,0-.463-2.175,10.679,10.679,0,0,0-5.558-6.312,10.362,10.362,0,0,0-2.344-.793,10.489,10.489,0,0,0-1.1-.172c-.433-.043-.867-.063-1.3-.063H89.37a3.225,3.225,0,0,1-2.008-.7,3.284,3.284,0,0,1-1.2-1.829,3.17,3.17,0,0,1-.1-.958,3.354,3.354,0,0,1,2.591-3.12,3.438,3.438,0,0,1,.793-.089h3.009q4.819,0,9.637,0c.422,0,.842.02,1.262.046.35.021.7.06,1.046.1a16.965,16.965,0,0,1,1.716.311,17.348,17.348,0,0,1,12.959,13.208c.076.349.142.7.189,1.055.038.285.083.569.11.855s.049.6.065.9c.022.407.031.813.019,1.22-.011.364-.022.729-.061,1.092-.021.2-.033.391-.056.586-.027.23-.056.459-.094.688-.066.4-.143.8-.235,1.2a17.343,17.343,0,0,1-12.885,12.929q-.726.172-1.466.276c-.382.053-.765.094-1.149.129-.4.036-.8.038-1.2.055-.2.008-.392,0-.589-.009-.1,0-.2-.007-.294-.009-.372-.008-.742-.043-1.111-.079s-.724-.085-1.084-.146a16.4,16.4,0,0,1-2.045-.477,17.4,17.4,0,0,1-8.544-5.748c-.044-.055-.087-.11-.129-.167a.045.045,0,0,1,0-.038.04.04,0,0,1,.029-.023q.105,0,.21,0Z" transform="translate(-80.171 -503.647)" fill="#006352" fill-rule="evenodd"/>
      </g>
    </g>
    <g id="Group_4" data-name="Group 4" transform="translate(58.374 207.682)">
      <g id="Group_3" data-name="Group 3" transform="translate(0 0)">
        <path id="Path_9" data-name="Path 9" d="M112.338,965.338V970.5l-9.616,3.106,9.612,3.146v5.124l-16.252-5.779v-4.975Z" transform="translate(-86.441 -878.864)" fill="#6ab335" fill-rule="evenodd"/>
        <path id="Path_10" data-name="Path 10" d="M111.287,902.306H109.83s.262-.229.35-.315a4.68,4.68,0,0,0,1.289-2.256,6.875,6.875,0,0,0,.057-2.813,7.436,7.436,0,0,0-3.929-5.553,9.236,9.236,0,0,0-7-.765,7.776,7.776,0,0,0-5.906,8.117,4.765,4.765,0,0,0,1.553,3.375c.06.056.25.21.25.21H95.03v4.843h16.258Zm-11.793-3.568a3.658,3.658,0,1,1,3.657,3.658A3.658,3.658,0,0,1,99.495,898.739Z" transform="translate(-85.391 -822.972)" fill="#6ab335" fill-rule="evenodd"/>
        <path id="Path_11" data-name="Path 11" d="M102.928,830.109a5.971,5.971,0,0,0,4.617-3.09,12.246,12.246,0,0,0,1.052-2.261c.354-1.009.677-2.027,1.021-3.038a8.492,8.492,0,0,1,.822-1.846,2.485,2.485,0,0,1,.758-.8,1.857,1.857,0,0,1,2.728.948,3.613,3.613,0,0,1-.04,2.544,1.814,1.814,0,0,1-1.434,1.2c-.1.019-.195.041-.289.062V829.2a6.3,6.3,0,0,0,6.184-4.179,10.179,10.179,0,0,0,.682-4.132,9.209,9.209,0,0,0-.836-3.76,6.078,6.078,0,0,0-4.131-3.5,8.2,8.2,0,0,0-3.349-.107A6.166,6.166,0,0,0,106.3,816.4a13.634,13.634,0,0,0-1.48,3.429c-.291.946-.57,1.895-.876,2.836a4.461,4.461,0,0,1-.791,1.519,1.68,1.68,0,0,1-.853.576,1.9,1.9,0,0,1-2.059-.739,3.682,3.682,0,0,1-.475-1,5.768,5.768,0,0,1-.107-2.475,4.329,4.329,0,0,1,.227-.879,2.147,2.147,0,0,1,1.428-1.379,6.515,6.515,0,0,1,.857-.17c.114-.019.232-.025.356-.035v-5.431a7.156,7.156,0,0,0-1.758.138,7.021,7.021,0,0,0-3.214,1.482,7.6,7.6,0,0,0-2.39,3.763,13.116,13.116,0,0,0-.482,4.307,10.315,10.315,0,0,0,.61,3.235,6.9,6.9,0,0,0,2.43,3.333A7.168,7.168,0,0,0,102.928,830.109Z" transform="translate(-85.392 -765.214)" fill="#6ab335" fill-rule="evenodd"/>
        <path id="Path_12" data-name="Path 12" d="M100.293,1047.316c-.052-.134-.108-.266-.155-.4-.228-.659-.49-1.308-.671-1.98a9.7,9.7,0,0,1-.314-3.909,3.761,3.761,0,0,1,1.226-2.345,3.387,3.387,0,0,1,1.548-.793v10.63h3.164c.034,0,.067,0,.1,0a6.224,6.224,0,0,0,2.269-.569,6.35,6.35,0,0,0,3.682-3.943,9.327,9.327,0,0,0,.381-4.595,7.608,7.608,0,0,0-3.483-5.426,8.808,8.808,0,0,0-6.539-1.25,8.215,8.215,0,0,0-6.683,6.916,13.339,13.339,0,0,0-.12,2.861,10.671,10.671,0,0,0,.6,3.2,9.888,9.888,0,0,0,.729,1.6Zm5.98-8.8a3.02,3.02,0,0,1,.961,2.458,3.447,3.447,0,0,1-.248,1.249,2.44,2.44,0,0,1-1.861,1.5,1.336,1.336,0,0,1-.283.037v-6A3.511,3.511,0,0,1,106.273,1038.511Z" transform="translate(-85.394 -928.906)" fill="#6ab335" fill-rule="evenodd"/>
        <path id="Path_13" data-name="Path 13" d="M95.169,631.306c-.027,0-.055,0-.083.005H68.806a6.275,6.275,0,0,0-5.886,4.126,6.041,6.041,0,0,0-.3,1.179,6.486,6.486,0,0,0-.076,1.005,6.9,6.9,0,0,0,.07.858,6.007,6.007,0,0,0,.341,1.319,6.357,6.357,0,0,0,1.4,2.177,6.265,6.265,0,0,0,2.6,1.575,6,6,0,0,0,1.025.223c.16.021.321.03.481.042.336.024.673.018,1.009.018H81.3c.168,0,.337,0,.5,0a7.189,7.189,0,0,1,1.824.28,7.6,7.6,0,0,1,2.325,1.1,7.763,7.763,0,0,1,2.487,2.886,7.522,7.522,0,0,1,.614,1.718,7.94,7.94,0,0,1,.138.807c.019.168.031.335.039.5,0,.07.011.14.013.21,0,.112.006.224,0,.336s-.014.2-.017.294a6.173,6.173,0,0,1-.084.794,7.412,7.412,0,0,1-.246,1.063,7.743,7.743,0,0,1-4.3,4.8,7.5,7.5,0,0,1-1.521.48c-.226.047-.455.078-.685.107a7.634,7.634,0,0,1-.945.042H66.278c-.07,0-.14,0-.21,0a.077.077,0,0,1-.066-.044c-.032-.062-.065-.125-.095-.188a17.555,17.555,0,0,1-.921-2.346c-.143-.462-.264-.93-.369-1.4a1.179,1.179,0,0,1-.016-.125c0-.021.029-.054.052-.056s.056,0,.084,0H81.3c.105,0,.21,0,.316,0a3.536,3.536,0,0,0,3.414-2.957,3.7,3.7,0,0,0,.026-.985,3.38,3.38,0,0,0-.448-1.368,3.527,3.527,0,0,0-1.439-1.378,3.48,3.48,0,0,0-1.053-.35,3.393,3.393,0,0,0-.523-.042c-.091,0-.182,0-.273,0H69.13c-.056,0-.112,0-.168,0a10.342,10.342,0,0,1-1.072-.044c-.279-.02-.557-.06-.833-.107a10.609,10.609,0,0,1-1.268-.3,10.437,10.437,0,0,1-4.679-2.943,10.36,10.36,0,0,1-2.572-5.187c-.046-.248-.072-.5-.111-.748,0-.007,0-.014,0-.021a12.278,12.278,0,0,1-.041-1.66c.033-.222.031-.447.064-.67.028-.195.054-.388.087-.582a9.635,9.635,0,0,1,.355-1.426,10.423,10.423,0,0,1,2.991-4.552,10.245,10.245,0,0,1,2.389-1.594,10.131,10.131,0,0,1,2.3-.792c.329-.07.659-.129.994-.167a10.581,10.581,0,0,1,1.216-.075q1.305,0,2.609,0H84.351c.175,0,.351,0,.526,0a3.443,3.443,0,0,1,.462.025,1.3,1.3,0,0,0,.147.008c.288.009.573.043.858.077.216.026.43.056.645.089.457.069.911.161,1.359.273a15.956,15.956,0,0,1,3.529,1.341,16.149,16.149,0,0,1,2.437,1.569q.4.31.776.646a.781.781,0,0,1,.085.091C95.181,631.272,95.172,631.29,95.169,631.306Z" transform="translate(-58.374 -627.141)" fill="#6ab335" fill-rule="evenodd"/>
      </g>
    </g>
  </g>
</svg>
